1.9Hzhigh3min_grf.mot
version=1
nRows=15
nColumns 19
inDegrees=yes
endheader
time	1_ground_force_vx	1_ground_force_vy	1_ground_force_vz	1_ground_force_px	1_ground_force_py	1_ground_force_pz	1_ground_torque_x	1_ground_torque_y	1_ground_torque_z	2_ground_force_vx	2_ground_force_vy	2_ground_force_vz	2_ground_force_px	2_ground_force_py	2_ground_force_pz	2_ground_torque_x	2_ground_torque_y	2_ground_torque_z
            2.502500	           -0.137122	           -0.361148	            0.136363	           -0.233013	            0.005581	           -0.255695	            0.013039	            0.462114	           -0.003902	           -7.495109	           12.501550	           -1.735420	           -0.010027	            0.005869	           -0.535570	            0.033509	           -0.055891	            0.007759
            2.503000	            0.092045	           -0.721438	            0.088392	           -0.233013	            0.005581	           -0.255695	            0.090450	            0.619129	            0.062759	           -7.687099	           13.789409	           -1.589956	           -0.035415	            0.005881	           -0.564659	            0.072615	           -0.130259	            0.015019
            2.503500	           -0.137026	            0.359522	            0.231167	           -0.233013	            0.005581	           -0.255695	            0.083782	            0.304993	           -0.004777	           -7.501152	           14.159387	           -1.870291	           -0.035099	            0.005898	           -0.569107	            0.127853	           -0.241339	            0.031878
            2.504000	           -0.365800	           -0.181909	            0.366985	           -0.233013	            0.005581	           -0.255695	            0.022076	           -0.277534	            0.001922	           -7.686291	           13.604089	           -1.262117	           -0.020765	            0.005930	           -0.563694	            0.017143	           -0.030342	            0.002815
            2.504500	           -0.595000	            0.358647	            0.415728	           -0.233013	            0.005581	           -0.255695	            0.000995	           -0.628811	           -0.028123	           -7.686414	           13.605094	           -1.543685	           -0.024033	            0.005896	           -0.557367	            0.047189	           -0.083526	            0.009477
            2.505000	           -0.594674	           -0.182543	            0.505121	           -0.233013	            0.005581	           -0.255695	            0.016135	           -0.508560	           -0.046424	           -7.406061	           13.790926	           -1.730860	           -0.032007	            0.005875	           -0.559688	            0.103953	           -0.193572	            0.024295
            2.505500	           -0.640663	           -0.002090	            0.460152	           -0.233013	            0.005581	           -0.255695	            0.017770	            0.073914	           -0.083488	           -7.638858	           13.420780	           -1.450506	           -0.019476	            0.005924	           -0.560515	            0.029024	           -0.050992	            0.005511
            2.506000	           -0.183111	           -0.180694	            0.091394	           -0.233013	            0.005581	           -0.255695	            0.089857	            0.526971	           -0.043372	           -7.642243	           14.342023	           -1.588005	           -0.037192	            0.005918	           -0.576734	            0.123337	           -0.231463	            0.025628
            2.506500	           -0.091309	           -1.442340	            0.039900	           -0.233013	            0.005581	           -0.255695	            0.054832	            0.656816	           -0.132765	           -7.640249	           13.789578	           -1.589976	           -0.028303	            0.005902	           -0.563300	            0.053741	           -0.096995	            0.011184
            2.507000	            0.091749	            0.900953	            0.095349	           -0.233013	            0.005581	           -0.255695	           -0.023366	            0.111123	           -0.033184	           -7.642222	           14.341856	           -1.541077	           -0.035316	            0.005910	           -0.572616	            0.088336	           -0.165777	            0.017813
            2.507500	           -0.412245	           -0.000670	            0.138592	           -0.233013	            0.005581	           -0.255695	           -0.062146	           -0.434637	           -0.019302	           -7.782772	           14.341349	           -1.541017	           -0.032610	            0.005925	           -0.574209	            0.084206	           -0.155168	            0.016673
            2.508000	           -0.503820	            1.260583	            0.281798	           -0.233013	            0.005581	           -0.255695	            0.006488	           -0.684555	            0.050694	           -7.734572	           13.973054	           -1.495423	           -0.026964	            0.005913	           -0.565145	            0.058982	           -0.106555	            0.011404
            2.508500	           -0.410927	           -0.363364	            0.641461	           -0.233013	            0.005581	           -0.255695	           -0.027120	           -0.360665	           -0.019059	           -7.965540	           13.051801	           -1.592465	           -0.014352	            0.005915	           -0.552801	           -0.008533	            0.013981	           -0.001706
            2.509000	           -0.549238	            0.178587	            0.368986	           -0.233013	            0.005581	           -0.255695	            0.134090	            0.203544	           -0.116914	           -7.684420	           13.052649	           -1.545656	           -0.019039	            0.005891	           -0.551055	            0.014401	           -0.024462	            0.002897
            2.509500	           -0.090874	            0.539206	            0.369394	           -0.233013	            0.005581	           -0.255695	            0.021110	            0.592117	           -0.133029	           -7.592776	           13.605934	           -1.684509	           -0.024502	            0.005898	           -0.558406	            0.070754	           -0.126788	            0.015697
